<svg width="16" height="18" viewBox="0 0 16 18" fill="none" xmlns="http://www.w3.org/2000/svg">
<path d="M12.9935 17.28C12.0135 18.23 10.9435 18.08 9.91352 17.63C8.82352 17.17 7.82352 17.15 6.67352 17.63C5.23352 18.25 4.47352 18.07 3.61352 17.28C-1.26648 12.25 -0.546476 4.59 4.99352 4.31C6.34352 4.38 7.28352 5.05 8.07352 5.11C9.25352 4.87 10.3835 4.18 11.6435 4.27C13.1535 4.39 14.2935 4.99 15.0435 6.07C11.9235 7.94 12.6635 12.05 15.5235 13.2C14.9535 14.7 14.2135 16.19 12.9835 17.29L12.9935 17.28ZM7.97352 4.25C7.82352 2.02 9.63352 0.18 11.7135 0C12.0035 2.58 9.37352 4.5 7.97352 4.25Z" fill="#F9FAF9"/>
</svg>
