<svg width="38" height="38" viewBox="0 0 38 38" fill="none" xmlns="http://www.w3.org/2000/svg">
<path d="M34.5305 25.2641C34.5305 30.9448 31.144 34.3313 25.4634 34.3313H23.6062C22.7479 34.3313 22.0456 33.629 22.0456 32.7707V23.766C22.0456 23.3446 22.389 22.9857 22.8103 22.9857L25.557 22.9389C25.7755 22.9233 25.9628 22.7672 26.0096 22.5487L26.5558 19.5679C26.6026 19.287 26.3841 19.0217 26.0876 19.0217L22.7635 19.0685C22.3265 19.0685 21.9832 18.7252 21.9676 18.3039L21.9052 14.4804C21.9052 14.2307 22.108 14.0122 22.3733 14.0122L26.1188 13.9498C26.3841 13.9498 26.587 13.7469 26.587 13.4816L26.5246 9.7361C26.5246 9.47079 26.3217 9.26793 26.0564 9.26793L21.8427 9.33037C19.2521 9.37719 17.1922 11.4996 17.239 14.0902L17.317 18.3819C17.3326 18.8188 16.9893 19.1622 16.5523 19.1778L14.6796 19.209C14.4143 19.209 14.2114 19.4118 14.2114 19.6771L14.2582 22.6423C14.2582 22.9076 14.4611 23.1105 14.7264 23.1105L16.5991 23.0793C17.0361 23.0793 17.3794 23.4226 17.395 23.844L17.5355 32.7395C17.5511 33.6134 16.8488 34.3313 15.9749 34.3313H12.3855C6.70487 34.3313 3.31836 30.9447 3.31836 25.2485V12.1863C3.31836 6.50565 6.70487 3.11914 12.3855 3.11914H25.4634C31.144 3.11914 34.5305 6.50565 34.5305 12.1863V25.2641Z" fill="#2756F1"/>
</svg>
