<svg width="22" height="24" viewBox="0 0 22 24" fill="none" xmlns="http://www.w3.org/2000/svg">
<g clip-path="url(#clip0_822_20944)">
<path d="M10.2474 11.4414L0.0908203 21.9696C0.204877 22.3695 0.409841 22.7383 0.690044 23.0479C0.970247 23.3574 1.31827 23.5995 1.70751 23.7555C2.09675 23.9116 2.5169 23.9775 2.93585 23.9483C3.35479 23.9191 3.76144 23.7955 4.12471 23.5869L15.5527 17.1473L10.2474 11.4414Z" fill="#EA4335"/>
<path d="M20.5172 9.65218L15.5754 6.85156L10.0127 11.6812L15.598 17.1326L20.5022 14.362C20.9367 14.1369 21.3006 13.7984 21.5545 13.3833C21.8084 12.9682 21.9426 12.4922 21.9426 12.007C21.9426 11.5218 21.8084 11.0459 21.5545 10.6307C21.3006 10.2156 20.9367 9.87718 20.5022 9.6521L20.5172 9.65218Z" fill="#FBBC04"/>
<path d="M0.0908837 1.99219C0.0295288 2.21675 -0.00103069 2.44845 2.6517e-05 2.68106V21.2812C0.000632352 21.5138 0.0311636 21.7453 0.0908837 21.9702L10.5956 11.7116L0.0908837 1.99219Z" fill="#4285F4"/>
<path d="M10.323 11.9808L15.5754 6.85154L4.16259 0.381885C3.73319 0.133083 3.24481 0.00131666 2.74719 5.20116e-06C1.51231 -0.00236936 0.426649 0.808542 0.0908203 1.98437L10.323 11.9808Z" fill="#34A853"/>
</g>
<defs>
<clipPath id="clip0_822_20944">
<rect width="21.9429" height="24" fill="white"/>
</clipPath>
</defs>
</svg>
