<svg width="38" height="38" viewBox="0 0 38 38" fill="none" xmlns="http://www.w3.org/2000/svg">
<path d="M34.3213 17.8051C33.7907 8.75361 25.5664 1.77772 16.0935 3.33833C9.57015 4.41515 4.34213 9.70557 3.32773 16.2289C2.7347 20.0056 3.51504 23.5794 5.2161 26.5289L3.82714 31.6945C3.51502 32.865 4.5918 33.9262 5.74665 33.5984L10.8342 32.1939C13.1439 33.5516 15.8438 34.3319 18.7309 34.3319C27.5327 34.3319 34.8363 26.5757 34.3213 17.8051ZM26.3623 24.5313C26.2218 24.8122 26.0501 25.0776 25.8316 25.3273C25.4415 25.7486 25.0201 26.0607 24.5519 26.248C24.0838 26.4509 23.5688 26.5445 23.0226 26.5445C22.2267 26.5445 21.3683 26.3573 20.4788 25.9671C19.5736 25.577 18.6841 25.0619 17.7946 24.4221C16.8894 23.7666 16.0467 23.0332 15.2352 22.2372C14.4236 21.4257 13.7057 20.5674 13.0503 19.6778C12.4104 18.7883 11.8955 17.8987 11.5209 17.0092C11.1464 16.1197 10.9591 15.2613 10.9591 14.4498C10.9591 13.9192 11.0527 13.4042 11.24 12.936C11.4273 12.4523 11.7238 12.0153 12.1452 11.6251C12.6446 11.1257 13.1908 10.8917 13.7682 10.8917C13.9867 10.8917 14.2051 10.9385 14.408 11.0321C14.6109 11.1257 14.7982 11.2662 14.9386 11.4691L16.7489 14.0284C16.8894 14.2313 16.9986 14.403 17.061 14.5747C17.1391 14.7463 17.1703 14.9024 17.1703 15.0584C17.1703 15.2457 17.1079 15.433 16.9987 15.6203C16.8894 15.8076 16.7489 15.9948 16.5616 16.1821L15.9686 16.8063C15.875 16.9 15.8438 16.9936 15.8438 17.1185C15.8438 17.1809 15.8594 17.2433 15.875 17.3057C15.9062 17.3681 15.9218 17.415 15.9375 17.4618C16.0779 17.7271 16.3276 18.0548 16.6709 18.4606C17.0298 18.8663 17.4044 19.2877 17.8102 19.6934C18.2316 20.1148 18.6373 20.4893 19.0587 20.8483C19.4644 21.1916 19.8077 21.4257 20.073 21.5662C20.1198 21.5818 20.1667 21.613 20.2135 21.6286C20.2759 21.6598 20.3384 21.6598 20.4164 21.6598C20.5568 21.6598 20.6505 21.613 20.7441 21.5194L21.3371 20.9263C21.54 20.7235 21.7273 20.583 21.899 20.4894C22.0863 20.3801 22.2579 20.3177 22.4608 20.3177C22.6168 20.3177 22.7729 20.3489 22.9446 20.4269C23.1162 20.505 23.3035 20.5986 23.4907 20.7391L26.0814 22.5806C26.2843 22.721 26.4247 22.8927 26.5183 23.08C26.5963 23.2829 26.6432 23.4701 26.6432 23.6886C26.5496 23.9539 26.4871 24.2504 26.3623 24.5313Z" fill="#31E231"/>
</svg>
